<mxfile host="Electron" modified="2024-03-04T14:15:25.332Z" agent="Mozilla/5.0 (Windows NT 10.0; Win64; x64) AppleWebKit/537.36 (KHTML, like Gecko) draw.io/23.1.5 Chrome/120.0.6099.109 Electron/28.1.0 Safari/537.36" etag="hPlhUi4wlgvzsk7pBt8E" version="23.1.5" type="device">
  <diagram name="Page-1" id="9GtqRazpQojA5KpIAFGJ">
    <mxGraphModel dx="1380" dy="2813" grid="1" gridSize="10" guides="1" tooltips="1" connect="1" arrows="1" fold="1" page="1" pageScale="1" pageWidth="850" pageHeight="1100" math="0" shadow="0">
      <root>
        <mxCell id="0" />
        <mxCell id="1" parent="0" />
        <mxCell id="3Yl6NUVvSSKZdZsIhmiR-46" value="Patients" style="rounded=1;whiteSpace=wrap;html=1;" parent="1" vertex="1">
          <mxGeometry x="4935" y="1710" width="120" height="60" as="geometry" />
        </mxCell>
        <mxCell id="3Yl6NUVvSSKZdZsIhmiR-47" value="Doctors" style="rounded=1;whiteSpace=wrap;html=1;" parent="1" vertex="1">
          <mxGeometry x="4660" y="2340" width="120" height="60" as="geometry" />
        </mxCell>
        <mxCell id="3Yl6NUVvSSKZdZsIhmiR-48" value="Treatments" style="rounded=1;whiteSpace=wrap;html=1;" parent="1" vertex="1">
          <mxGeometry x="5850" y="1730" width="120" height="60" as="geometry" />
        </mxCell>
        <mxCell id="3Yl6NUVvSSKZdZsIhmiR-50" value="ICUs" style="rounded=1;whiteSpace=wrap;html=1;" parent="1" vertex="1">
          <mxGeometry x="4820" y="1020" width="120" height="60" as="geometry" />
        </mxCell>
        <mxCell id="3Yl6NUVvSSKZdZsIhmiR-62" value="id" style="ellipse;whiteSpace=wrap;html=1;" parent="1" vertex="1">
          <mxGeometry x="4840" y="1890" width="120" height="60" as="geometry" />
        </mxCell>
        <mxCell id="3Yl6NUVvSSKZdZsIhmiR-63" value="last_name" style="ellipse;whiteSpace=wrap;html=1;" parent="1" vertex="1">
          <mxGeometry x="4735" y="1740" width="120" height="60" as="geometry" />
        </mxCell>
        <mxCell id="3Yl6NUVvSSKZdZsIhmiR-64" value="first_name" style="ellipse;whiteSpace=wrap;html=1;" parent="1" vertex="1">
          <mxGeometry x="4760" y="1820" width="120" height="60" as="geometry" />
        </mxCell>
        <mxCell id="3Yl6NUVvSSKZdZsIhmiR-65" value="age" style="ellipse;whiteSpace=wrap;html=1;" parent="1" vertex="1">
          <mxGeometry x="4710" y="1660" width="120" height="60" as="geometry" />
        </mxCell>
        <mxCell id="3Yl6NUVvSSKZdZsIhmiR-66" value="weight" style="ellipse;whiteSpace=wrap;html=1;" parent="1" vertex="1">
          <mxGeometry x="4765" y="1590" width="120" height="60" as="geometry" />
        </mxCell>
        <mxCell id="3Yl6NUVvSSKZdZsIhmiR-67" value="gender" style="ellipse;whiteSpace=wrap;html=1;" parent="1" vertex="1">
          <mxGeometry x="4935" y="1440" width="120" height="60" as="geometry" />
        </mxCell>
        <mxCell id="3Yl6NUVvSSKZdZsIhmiR-68" value="occupation" style="ellipse;whiteSpace=wrap;html=1;" parent="1" vertex="1">
          <mxGeometry x="5130" y="1620" width="120" height="60" as="geometry" />
        </mxCell>
        <mxCell id="3Yl6NUVvSSKZdZsIhmiR-69" value="doctor_id" style="ellipse;whiteSpace=wrap;html=1;" parent="1" vertex="1">
          <mxGeometry x="5145" y="1700" width="120" height="60" as="geometry" />
        </mxCell>
        <mxCell id="3Yl6NUVvSSKZdZsIhmiR-70" value="treatment_id" style="ellipse;whiteSpace=wrap;html=1;" parent="1" vertex="1">
          <mxGeometry x="5145" y="1780" width="120" height="60" as="geometry" />
        </mxCell>
        <mxCell id="3Yl6NUVvSSKZdZsIhmiR-71" value="room_number" style="ellipse;whiteSpace=wrap;html=1;" parent="1" vertex="1">
          <mxGeometry x="5075" y="1870" width="120" height="60" as="geometry" />
        </mxCell>
        <mxCell id="3Yl6NUVvSSKZdZsIhmiR-83" value="" style="endArrow=none;html=1;rounded=0;entryX=0.03;entryY=0.967;entryDx=0;entryDy=0;exitX=1;exitY=0.5;exitDx=0;exitDy=0;entryPerimeter=0;" parent="1" source="3Yl6NUVvSSKZdZsIhmiR-64" target="3Yl6NUVvSSKZdZsIhmiR-46" edge="1">
          <mxGeometry width="50" height="50" relative="1" as="geometry">
            <mxPoint x="4885" y="1840" as="sourcePoint" />
            <mxPoint x="4935" y="1790" as="targetPoint" />
          </mxGeometry>
        </mxCell>
        <mxCell id="3Yl6NUVvSSKZdZsIhmiR-84" value="" style="endArrow=none;html=1;rounded=0;entryX=0;entryY=0.5;entryDx=0;entryDy=0;exitX=1;exitY=0.5;exitDx=0;exitDy=0;" parent="1" source="3Yl6NUVvSSKZdZsIhmiR-63" target="3Yl6NUVvSSKZdZsIhmiR-46" edge="1">
          <mxGeometry width="50" height="50" relative="1" as="geometry">
            <mxPoint x="4885" y="1800" as="sourcePoint" />
            <mxPoint x="4935" y="1750" as="targetPoint" />
          </mxGeometry>
        </mxCell>
        <mxCell id="3Yl6NUVvSSKZdZsIhmiR-85" value="" style="endArrow=none;html=1;rounded=0;entryX=0.019;entryY=0.051;entryDx=0;entryDy=0;exitX=1;exitY=0.5;exitDx=0;exitDy=0;entryPerimeter=0;" parent="1" source="3Yl6NUVvSSKZdZsIhmiR-65" target="3Yl6NUVvSSKZdZsIhmiR-46" edge="1">
          <mxGeometry width="50" height="50" relative="1" as="geometry">
            <mxPoint x="4885" y="1800" as="sourcePoint" />
            <mxPoint x="4935" y="1750" as="targetPoint" />
          </mxGeometry>
        </mxCell>
        <mxCell id="3Yl6NUVvSSKZdZsIhmiR-86" value="" style="endArrow=none;html=1;rounded=0;entryX=0.25;entryY=0;entryDx=0;entryDy=0;exitX=0.5;exitY=1;exitDx=0;exitDy=0;" parent="1" source="3Yl6NUVvSSKZdZsIhmiR-66" target="3Yl6NUVvSSKZdZsIhmiR-46" edge="1">
          <mxGeometry width="50" height="50" relative="1" as="geometry">
            <mxPoint x="4885" y="1720" as="sourcePoint" />
            <mxPoint x="4935" y="1670" as="targetPoint" />
          </mxGeometry>
        </mxCell>
        <mxCell id="3Yl6NUVvSSKZdZsIhmiR-87" value="" style="endArrow=none;html=1;rounded=0;entryX=0.5;entryY=1;entryDx=0;entryDy=0;exitX=0.5;exitY=0;exitDx=0;exitDy=0;" parent="1" source="3Yl6NUVvSSKZdZsIhmiR-46" target="3Yl6NUVvSSKZdZsIhmiR-67" edge="1">
          <mxGeometry width="50" height="50" relative="1" as="geometry">
            <mxPoint x="4915" y="1760" as="sourcePoint" />
            <mxPoint x="4965" y="1710" as="targetPoint" />
          </mxGeometry>
        </mxCell>
        <mxCell id="3Yl6NUVvSSKZdZsIhmiR-88" value="" style="endArrow=none;html=1;rounded=0;entryX=-0.007;entryY=0.598;entryDx=0;entryDy=0;entryPerimeter=0;exitX=0.979;exitY=0.052;exitDx=0;exitDy=0;exitPerimeter=0;" parent="1" source="3Yl6NUVvSSKZdZsIhmiR-46" target="3Yl6NUVvSSKZdZsIhmiR-68" edge="1">
          <mxGeometry width="50" height="50" relative="1" as="geometry">
            <mxPoint x="4945" y="1770" as="sourcePoint" />
            <mxPoint x="4995" y="1720" as="targetPoint" />
          </mxGeometry>
        </mxCell>
        <mxCell id="3Yl6NUVvSSKZdZsIhmiR-89" value="" style="endArrow=none;html=1;rounded=0;entryX=0.5;entryY=0;entryDx=0;entryDy=0;exitX=0.333;exitY=0.999;exitDx=0;exitDy=0;exitPerimeter=0;" parent="1" source="3Yl6NUVvSSKZdZsIhmiR-46" target="3Yl6NUVvSSKZdZsIhmiR-62" edge="1">
          <mxGeometry width="50" height="50" relative="1" as="geometry">
            <mxPoint x="4965" y="1790" as="sourcePoint" />
            <mxPoint x="5015" y="1740" as="targetPoint" />
          </mxGeometry>
        </mxCell>
        <mxCell id="3Yl6NUVvSSKZdZsIhmiR-90" value="" style="endArrow=none;html=1;rounded=0;entryX=0;entryY=0.5;entryDx=0;entryDy=0;exitX=1;exitY=0.5;exitDx=0;exitDy=0;" parent="1" source="3Yl6NUVvSSKZdZsIhmiR-46" target="3Yl6NUVvSSKZdZsIhmiR-69" edge="1">
          <mxGeometry width="50" height="50" relative="1" as="geometry">
            <mxPoint x="5035" y="1810" as="sourcePoint" />
            <mxPoint x="5085" y="1760" as="targetPoint" />
          </mxGeometry>
        </mxCell>
        <mxCell id="3Yl6NUVvSSKZdZsIhmiR-91" value="" style="endArrow=none;html=1;rounded=0;entryX=0;entryY=0.5;entryDx=0;entryDy=0;exitX=1;exitY=0.75;exitDx=0;exitDy=0;" parent="1" source="3Yl6NUVvSSKZdZsIhmiR-46" target="3Yl6NUVvSSKZdZsIhmiR-70" edge="1">
          <mxGeometry width="50" height="50" relative="1" as="geometry">
            <mxPoint x="5035" y="1810" as="sourcePoint" />
            <mxPoint x="5085" y="1760" as="targetPoint" />
          </mxGeometry>
        </mxCell>
        <mxCell id="3Yl6NUVvSSKZdZsIhmiR-92" value="" style="endArrow=none;html=1;rounded=0;entryX=0.5;entryY=0;entryDx=0;entryDy=0;exitX=0.75;exitY=1;exitDx=0;exitDy=0;" parent="1" source="3Yl6NUVvSSKZdZsIhmiR-46" target="3Yl6NUVvSSKZdZsIhmiR-71" edge="1">
          <mxGeometry width="50" height="50" relative="1" as="geometry">
            <mxPoint x="5035" y="1810" as="sourcePoint" />
            <mxPoint x="5085" y="1760" as="targetPoint" />
          </mxGeometry>
        </mxCell>
        <mxCell id="3Yl6NUVvSSKZdZsIhmiR-93" value="id" style="ellipse;whiteSpace=wrap;html=1;" parent="1" vertex="1">
          <mxGeometry x="4500" y="2430" width="120" height="60" as="geometry" />
        </mxCell>
        <mxCell id="3Yl6NUVvSSKZdZsIhmiR-94" value="last_name" style="ellipse;whiteSpace=wrap;html=1;" parent="1" vertex="1">
          <mxGeometry x="4500" y="2250" width="120" height="60" as="geometry" />
        </mxCell>
        <mxCell id="3Yl6NUVvSSKZdZsIhmiR-95" value="first_name" style="ellipse;whiteSpace=wrap;html=1;" parent="1" vertex="1">
          <mxGeometry x="4460" y="2340" width="120" height="60" as="geometry" />
        </mxCell>
        <mxCell id="3Yl6NUVvSSKZdZsIhmiR-96" value="age" style="ellipse;whiteSpace=wrap;html=1;" parent="1" vertex="1">
          <mxGeometry x="4660" y="2190" width="120" height="60" as="geometry" />
        </mxCell>
        <mxCell id="3Yl6NUVvSSKZdZsIhmiR-101" value="gender" style="ellipse;whiteSpace=wrap;html=1;" parent="1" vertex="1">
          <mxGeometry x="4820" y="2250" width="120" height="60" as="geometry" />
        </mxCell>
        <mxCell id="3Yl6NUVvSSKZdZsIhmiR-102" value="studies" style="ellipse;whiteSpace=wrap;html=1;" parent="1" vertex="1">
          <mxGeometry x="4840" y="2340" width="120" height="60" as="geometry" />
        </mxCell>
        <mxCell id="3Yl6NUVvSSKZdZsIhmiR-103" value="specialization" style="ellipse;whiteSpace=wrap;html=1;" parent="1" vertex="1">
          <mxGeometry x="4820" y="2430" width="120" height="60" as="geometry" />
        </mxCell>
        <mxCell id="3Yl6NUVvSSKZdZsIhmiR-105" value="" style="endArrow=none;html=1;rounded=0;entryX=0;entryY=0.5;entryDx=0;entryDy=0;exitX=1;exitY=0.5;exitDx=0;exitDy=0;" parent="1" source="3Yl6NUVvSSKZdZsIhmiR-95" target="3Yl6NUVvSSKZdZsIhmiR-47" edge="1">
          <mxGeometry width="50" height="50" relative="1" as="geometry">
            <mxPoint x="4540" y="2440" as="sourcePoint" />
            <mxPoint x="4590" y="2390" as="targetPoint" />
          </mxGeometry>
        </mxCell>
        <mxCell id="3Yl6NUVvSSKZdZsIhmiR-106" value="" style="endArrow=none;html=1;rounded=0;entryX=0.028;entryY=0.965;entryDx=0;entryDy=0;entryPerimeter=0;exitX=0.5;exitY=0;exitDx=0;exitDy=0;" parent="1" source="3Yl6NUVvSSKZdZsIhmiR-93" target="3Yl6NUVvSSKZdZsIhmiR-47" edge="1">
          <mxGeometry width="50" height="50" relative="1" as="geometry">
            <mxPoint x="4540" y="2440" as="sourcePoint" />
            <mxPoint x="4590" y="2390" as="targetPoint" />
          </mxGeometry>
        </mxCell>
        <mxCell id="3Yl6NUVvSSKZdZsIhmiR-107" value="" style="endArrow=none;html=1;rounded=0;entryX=0.5;entryY=1;entryDx=0;entryDy=0;exitX=0.961;exitY=0.023;exitDx=0;exitDy=0;exitPerimeter=0;" parent="1" source="3Yl6NUVvSSKZdZsIhmiR-47" target="3Yl6NUVvSSKZdZsIhmiR-101" edge="1">
          <mxGeometry width="50" height="50" relative="1" as="geometry">
            <mxPoint x="4790" y="2320" as="sourcePoint" />
            <mxPoint x="4740" y="2340" as="targetPoint" />
          </mxGeometry>
        </mxCell>
        <mxCell id="3Yl6NUVvSSKZdZsIhmiR-108" value="" style="endArrow=none;html=1;rounded=0;entryX=0.5;entryY=1;entryDx=0;entryDy=0;exitX=0.5;exitY=0;exitDx=0;exitDy=0;" parent="1" source="3Yl6NUVvSSKZdZsIhmiR-47" target="3Yl6NUVvSSKZdZsIhmiR-96" edge="1">
          <mxGeometry width="50" height="50" relative="1" as="geometry">
            <mxPoint x="4690" y="2390" as="sourcePoint" />
            <mxPoint x="4740" y="2340" as="targetPoint" />
          </mxGeometry>
        </mxCell>
        <mxCell id="3Yl6NUVvSSKZdZsIhmiR-109" value="" style="endArrow=none;html=1;rounded=0;entryX=0.5;entryY=1;entryDx=0;entryDy=0;exitX=0.037;exitY=0.023;exitDx=0;exitDy=0;exitPerimeter=0;" parent="1" source="3Yl6NUVvSSKZdZsIhmiR-47" target="3Yl6NUVvSSKZdZsIhmiR-94" edge="1">
          <mxGeometry width="50" height="50" relative="1" as="geometry">
            <mxPoint x="4690" y="2390" as="sourcePoint" />
            <mxPoint x="4740" y="2340" as="targetPoint" />
          </mxGeometry>
        </mxCell>
        <mxCell id="3Yl6NUVvSSKZdZsIhmiR-110" value="" style="endArrow=none;html=1;rounded=0;entryX=0.971;entryY=0.973;entryDx=0;entryDy=0;entryPerimeter=0;exitX=0.5;exitY=0;exitDx=0;exitDy=0;" parent="1" source="3Yl6NUVvSSKZdZsIhmiR-103" target="3Yl6NUVvSSKZdZsIhmiR-47" edge="1">
          <mxGeometry width="50" height="50" relative="1" as="geometry">
            <mxPoint x="4830" y="2420" as="sourcePoint" />
            <mxPoint x="4880" y="2370" as="targetPoint" />
          </mxGeometry>
        </mxCell>
        <mxCell id="3Yl6NUVvSSKZdZsIhmiR-111" value="" style="endArrow=none;html=1;rounded=0;exitX=1;exitY=0.5;exitDx=0;exitDy=0;entryX=0;entryY=0.5;entryDx=0;entryDy=0;" parent="1" source="3Yl6NUVvSSKZdZsIhmiR-47" target="3Yl6NUVvSSKZdZsIhmiR-102" edge="1">
          <mxGeometry width="50" height="50" relative="1" as="geometry">
            <mxPoint x="4830" y="2420" as="sourcePoint" />
            <mxPoint x="4840" y="2370" as="targetPoint" />
          </mxGeometry>
        </mxCell>
        <mxCell id="3Yl6NUVvSSKZdZsIhmiR-113" value="id" style="ellipse;whiteSpace=wrap;html=1;" parent="1" vertex="1">
          <mxGeometry x="5680" y="1730" width="120" height="60" as="geometry" />
        </mxCell>
        <mxCell id="3Yl6NUVvSSKZdZsIhmiR-114" value="name" style="ellipse;whiteSpace=wrap;html=1;" parent="1" vertex="1">
          <mxGeometry x="5760" y="1620" width="120" height="60" as="geometry" />
        </mxCell>
        <mxCell id="3Yl6NUVvSSKZdZsIhmiR-115" value="medicine_id" style="ellipse;whiteSpace=wrap;html=1;" parent="1" vertex="1">
          <mxGeometry x="6020" y="1730" width="120" height="60" as="geometry" />
        </mxCell>
        <mxCell id="3Yl6NUVvSSKZdZsIhmiR-116" value="duration" style="ellipse;whiteSpace=wrap;html=1;" parent="1" vertex="1">
          <mxGeometry x="5960" y="1620" width="120" height="60" as="geometry" />
        </mxCell>
        <mxCell id="3Yl6NUVvSSKZdZsIhmiR-117" value="" style="endArrow=none;html=1;rounded=0;exitX=0;exitY=0.5;exitDx=0;exitDy=0;entryX=1;entryY=0.5;entryDx=0;entryDy=0;" parent="1" source="3Yl6NUVvSSKZdZsIhmiR-48" target="3Yl6NUVvSSKZdZsIhmiR-113" edge="1">
          <mxGeometry width="50" height="50" relative="1" as="geometry">
            <mxPoint x="5860" y="1640" as="sourcePoint" />
            <mxPoint x="5820" y="1770" as="targetPoint" />
          </mxGeometry>
        </mxCell>
        <mxCell id="3Yl6NUVvSSKZdZsIhmiR-119" value="medicine_id" style="ellipse;whiteSpace=wrap;html=1;" parent="1" vertex="1">
          <mxGeometry x="6020" y="1730" width="120" height="60" as="geometry" />
        </mxCell>
        <mxCell id="3Yl6NUVvSSKZdZsIhmiR-120" value="" style="endArrow=none;html=1;rounded=0;entryX=0.5;entryY=1;entryDx=0;entryDy=0;exitX=0.25;exitY=0;exitDx=0;exitDy=0;" parent="1" source="3Yl6NUVvSSKZdZsIhmiR-48" target="3Yl6NUVvSSKZdZsIhmiR-114" edge="1">
          <mxGeometry width="50" height="50" relative="1" as="geometry">
            <mxPoint x="5980" y="1730" as="sourcePoint" />
            <mxPoint x="6030" y="1680" as="targetPoint" />
          </mxGeometry>
        </mxCell>
        <mxCell id="3Yl6NUVvSSKZdZsIhmiR-121" value="" style="endArrow=none;html=1;rounded=0;exitX=0.75;exitY=0;exitDx=0;exitDy=0;entryX=0.5;entryY=1;entryDx=0;entryDy=0;" parent="1" source="3Yl6NUVvSSKZdZsIhmiR-48" target="3Yl6NUVvSSKZdZsIhmiR-116" edge="1">
          <mxGeometry width="50" height="50" relative="1" as="geometry">
            <mxPoint x="5980" y="1730" as="sourcePoint" />
            <mxPoint x="6030" y="1680" as="targetPoint" />
          </mxGeometry>
        </mxCell>
        <mxCell id="3Yl6NUVvSSKZdZsIhmiR-122" value="" style="endArrow=none;html=1;rounded=0;entryX=0;entryY=0.5;entryDx=0;entryDy=0;exitX=1;exitY=0.5;exitDx=0;exitDy=0;" parent="1" source="3Yl6NUVvSSKZdZsIhmiR-48" target="3Yl6NUVvSSKZdZsIhmiR-119" edge="1">
          <mxGeometry width="50" height="50" relative="1" as="geometry">
            <mxPoint x="5990" y="1720" as="sourcePoint" />
            <mxPoint x="6040" y="1670" as="targetPoint" />
          </mxGeometry>
        </mxCell>
        <mxCell id="3Yl6NUVvSSKZdZsIhmiR-127" value="Rooms" style="rounded=1;whiteSpace=wrap;html=1;" parent="1" vertex="1">
          <mxGeometry x="4340" y="1210" width="120" height="60" as="geometry" />
        </mxCell>
        <mxCell id="3Yl6NUVvSSKZdZsIhmiR-128" value="number" style="ellipse;whiteSpace=wrap;html=1;" parent="1" vertex="1">
          <mxGeometry x="4250" y="1100" width="120" height="60" as="geometry" />
        </mxCell>
        <mxCell id="3Yl6NUVvSSKZdZsIhmiR-129" value="floor" style="ellipse;whiteSpace=wrap;html=1;" parent="1" vertex="1">
          <mxGeometry x="4450" y="1100" width="120" height="60" as="geometry" />
        </mxCell>
        <mxCell id="3Yl6NUVvSSKZdZsIhmiR-130" value="" style="endArrow=none;html=1;rounded=0;entryX=0.5;entryY=1;entryDx=0;entryDy=0;exitX=0.25;exitY=0;exitDx=0;exitDy=0;" parent="1" source="3Yl6NUVvSSKZdZsIhmiR-127" target="3Yl6NUVvSSKZdZsIhmiR-128" edge="1">
          <mxGeometry width="50" height="50" relative="1" as="geometry">
            <mxPoint x="4470" y="1210" as="sourcePoint" />
            <mxPoint x="4520" y="1160" as="targetPoint" />
          </mxGeometry>
        </mxCell>
        <mxCell id="3Yl6NUVvSSKZdZsIhmiR-131" value="" style="endArrow=none;html=1;rounded=0;exitX=0.75;exitY=0;exitDx=0;exitDy=0;entryX=0.5;entryY=1;entryDx=0;entryDy=0;" parent="1" source="3Yl6NUVvSSKZdZsIhmiR-127" target="3Yl6NUVvSSKZdZsIhmiR-129" edge="1">
          <mxGeometry width="50" height="50" relative="1" as="geometry">
            <mxPoint x="4470" y="1210" as="sourcePoint" />
            <mxPoint x="4520" y="1160" as="targetPoint" />
          </mxGeometry>
        </mxCell>
        <mxCell id="3Yl6NUVvSSKZdZsIhmiR-134" value="number" style="ellipse;whiteSpace=wrap;html=1;" parent="1" vertex="1">
          <mxGeometry x="4650" y="1020" width="120" height="60" as="geometry" />
        </mxCell>
        <mxCell id="3Yl6NUVvSSKZdZsIhmiR-135" value="floor" style="ellipse;whiteSpace=wrap;html=1;" parent="1" vertex="1">
          <mxGeometry x="4820" y="920" width="120" height="60" as="geometry" />
        </mxCell>
        <mxCell id="3Yl6NUVvSSKZdZsIhmiR-136" value="type" style="ellipse;whiteSpace=wrap;html=1;" parent="1" vertex="1">
          <mxGeometry x="4990" y="1020" width="120" height="60" as="geometry" />
        </mxCell>
        <mxCell id="3Yl6NUVvSSKZdZsIhmiR-137" value="" style="endArrow=none;html=1;rounded=0;entryX=0;entryY=0.5;entryDx=0;entryDy=0;exitX=1;exitY=0.5;exitDx=0;exitDy=0;" parent="1" source="3Yl6NUVvSSKZdZsIhmiR-134" target="3Yl6NUVvSSKZdZsIhmiR-50" edge="1">
          <mxGeometry width="50" height="50" relative="1" as="geometry">
            <mxPoint x="4760" y="990" as="sourcePoint" />
            <mxPoint x="4810" y="940" as="targetPoint" />
          </mxGeometry>
        </mxCell>
        <mxCell id="3Yl6NUVvSSKZdZsIhmiR-138" value="" style="endArrow=none;html=1;rounded=0;entryX=0;entryY=0.5;entryDx=0;entryDy=0;exitX=1;exitY=0.5;exitDx=0;exitDy=0;" parent="1" source="3Yl6NUVvSSKZdZsIhmiR-50" target="3Yl6NUVvSSKZdZsIhmiR-136" edge="1">
          <mxGeometry width="50" height="50" relative="1" as="geometry">
            <mxPoint x="4760" y="990" as="sourcePoint" />
            <mxPoint x="4810" y="940" as="targetPoint" />
            <Array as="points">
              <mxPoint x="4970" y="1050" />
            </Array>
          </mxGeometry>
        </mxCell>
        <mxCell id="3Yl6NUVvSSKZdZsIhmiR-139" value="" style="endArrow=none;html=1;rounded=0;entryX=0.5;entryY=0;entryDx=0;entryDy=0;exitX=0.5;exitY=1;exitDx=0;exitDy=0;" parent="1" source="3Yl6NUVvSSKZdZsIhmiR-135" target="3Yl6NUVvSSKZdZsIhmiR-50" edge="1">
          <mxGeometry width="50" height="50" relative="1" as="geometry">
            <mxPoint x="4760" y="990" as="sourcePoint" />
            <mxPoint x="4810" y="940" as="targetPoint" />
          </mxGeometry>
        </mxCell>
        <mxCell id="3Yl6NUVvSSKZdZsIhmiR-147" value="OperationsTheaters" style="rounded=1;whiteSpace=wrap;html=1;" parent="1" vertex="1">
          <mxGeometry x="4140" y="1760" width="120" height="60" as="geometry" />
        </mxCell>
        <mxCell id="3Yl6NUVvSSKZdZsIhmiR-148" value="number" style="ellipse;whiteSpace=wrap;html=1;" parent="1" vertex="1">
          <mxGeometry x="3970" y="1760" width="120" height="60" as="geometry" />
        </mxCell>
        <mxCell id="3Yl6NUVvSSKZdZsIhmiR-149" value="floor" style="ellipse;whiteSpace=wrap;html=1;" parent="1" vertex="1">
          <mxGeometry x="4140" y="1660" width="120" height="60" as="geometry" />
        </mxCell>
        <mxCell id="3Yl6NUVvSSKZdZsIhmiR-150" value="specialization" style="ellipse;whiteSpace=wrap;html=1;" parent="1" vertex="1">
          <mxGeometry x="4310" y="1760" width="120" height="60" as="geometry" />
        </mxCell>
        <mxCell id="3Yl6NUVvSSKZdZsIhmiR-151" value="" style="endArrow=none;html=1;rounded=0;entryX=0;entryY=0.5;entryDx=0;entryDy=0;exitX=1;exitY=0.5;exitDx=0;exitDy=0;" parent="1" source="3Yl6NUVvSSKZdZsIhmiR-148" target="3Yl6NUVvSSKZdZsIhmiR-147" edge="1">
          <mxGeometry width="50" height="50" relative="1" as="geometry">
            <mxPoint x="4080" y="1730" as="sourcePoint" />
            <mxPoint x="4130" y="1680" as="targetPoint" />
          </mxGeometry>
        </mxCell>
        <mxCell id="3Yl6NUVvSSKZdZsIhmiR-152" value="" style="endArrow=none;html=1;rounded=0;entryX=0;entryY=0.5;entryDx=0;entryDy=0;exitX=1;exitY=0.5;exitDx=0;exitDy=0;" parent="1" source="3Yl6NUVvSSKZdZsIhmiR-147" target="3Yl6NUVvSSKZdZsIhmiR-150" edge="1">
          <mxGeometry width="50" height="50" relative="1" as="geometry">
            <mxPoint x="4080" y="1730" as="sourcePoint" />
            <mxPoint x="4130" y="1680" as="targetPoint" />
          </mxGeometry>
        </mxCell>
        <mxCell id="3Yl6NUVvSSKZdZsIhmiR-153" value="" style="endArrow=none;html=1;rounded=0;entryX=0.5;entryY=0;entryDx=0;entryDy=0;exitX=0.5;exitY=1;exitDx=0;exitDy=0;" parent="1" source="3Yl6NUVvSSKZdZsIhmiR-149" target="3Yl6NUVvSSKZdZsIhmiR-147" edge="1">
          <mxGeometry width="50" height="50" relative="1" as="geometry">
            <mxPoint x="4080" y="1730" as="sourcePoint" />
            <mxPoint x="4130" y="1680" as="targetPoint" />
          </mxGeometry>
        </mxCell>
        <mxCell id="3Yl6NUVvSSKZdZsIhmiR-154" value="Nurses" style="rounded=1;whiteSpace=wrap;html=1;" parent="1" vertex="1">
          <mxGeometry x="5395" y="860" width="120" height="60" as="geometry" />
        </mxCell>
        <mxCell id="3Yl6NUVvSSKZdZsIhmiR-155" value="id" style="ellipse;whiteSpace=wrap;html=1;" parent="1" vertex="1">
          <mxGeometry x="5235" y="950" width="120" height="60" as="geometry" />
        </mxCell>
        <mxCell id="3Yl6NUVvSSKZdZsIhmiR-156" value="last_name" style="ellipse;whiteSpace=wrap;html=1;" parent="1" vertex="1">
          <mxGeometry x="5235" y="770" width="120" height="60" as="geometry" />
        </mxCell>
        <mxCell id="3Yl6NUVvSSKZdZsIhmiR-157" value="first_name" style="ellipse;whiteSpace=wrap;html=1;" parent="1" vertex="1">
          <mxGeometry x="5195" y="860" width="120" height="60" as="geometry" />
        </mxCell>
        <mxCell id="3Yl6NUVvSSKZdZsIhmiR-158" value="age" style="ellipse;whiteSpace=wrap;html=1;" parent="1" vertex="1">
          <mxGeometry x="5395" y="710" width="120" height="60" as="geometry" />
        </mxCell>
        <mxCell id="3Yl6NUVvSSKZdZsIhmiR-159" value="gender" style="ellipse;whiteSpace=wrap;html=1;" parent="1" vertex="1">
          <mxGeometry x="5555" y="770" width="120" height="60" as="geometry" />
        </mxCell>
        <mxCell id="3Yl6NUVvSSKZdZsIhmiR-160" value="studies" style="ellipse;whiteSpace=wrap;html=1;" parent="1" vertex="1">
          <mxGeometry x="5575" y="860" width="120" height="60" as="geometry" />
        </mxCell>
        <mxCell id="3Yl6NUVvSSKZdZsIhmiR-161" value="floor" style="ellipse;whiteSpace=wrap;html=1;" parent="1" vertex="1">
          <mxGeometry x="5555" y="950" width="120" height="60" as="geometry" />
        </mxCell>
        <mxCell id="3Yl6NUVvSSKZdZsIhmiR-162" value="" style="endArrow=none;html=1;rounded=0;entryX=0;entryY=0.5;entryDx=0;entryDy=0;exitX=1;exitY=0.5;exitDx=0;exitDy=0;" parent="1" source="3Yl6NUVvSSKZdZsIhmiR-157" target="3Yl6NUVvSSKZdZsIhmiR-154" edge="1">
          <mxGeometry width="50" height="50" relative="1" as="geometry">
            <mxPoint x="5275" y="960" as="sourcePoint" />
            <mxPoint x="5325" y="910" as="targetPoint" />
          </mxGeometry>
        </mxCell>
        <mxCell id="3Yl6NUVvSSKZdZsIhmiR-163" value="" style="endArrow=none;html=1;rounded=0;entryX=0.028;entryY=0.965;entryDx=0;entryDy=0;entryPerimeter=0;exitX=0.5;exitY=0;exitDx=0;exitDy=0;" parent="1" source="3Yl6NUVvSSKZdZsIhmiR-155" target="3Yl6NUVvSSKZdZsIhmiR-154" edge="1">
          <mxGeometry width="50" height="50" relative="1" as="geometry">
            <mxPoint x="5275" y="960" as="sourcePoint" />
            <mxPoint x="5325" y="910" as="targetPoint" />
          </mxGeometry>
        </mxCell>
        <mxCell id="3Yl6NUVvSSKZdZsIhmiR-164" value="" style="endArrow=none;html=1;rounded=0;entryX=0.5;entryY=1;entryDx=0;entryDy=0;exitX=0.961;exitY=0.023;exitDx=0;exitDy=0;exitPerimeter=0;" parent="1" source="3Yl6NUVvSSKZdZsIhmiR-154" target="3Yl6NUVvSSKZdZsIhmiR-159" edge="1">
          <mxGeometry width="50" height="50" relative="1" as="geometry">
            <mxPoint x="5525" y="840" as="sourcePoint" />
            <mxPoint x="5475" y="860" as="targetPoint" />
          </mxGeometry>
        </mxCell>
        <mxCell id="3Yl6NUVvSSKZdZsIhmiR-165" value="" style="endArrow=none;html=1;rounded=0;entryX=0.5;entryY=1;entryDx=0;entryDy=0;exitX=0.5;exitY=0;exitDx=0;exitDy=0;" parent="1" source="3Yl6NUVvSSKZdZsIhmiR-154" target="3Yl6NUVvSSKZdZsIhmiR-158" edge="1">
          <mxGeometry width="50" height="50" relative="1" as="geometry">
            <mxPoint x="5425" y="910" as="sourcePoint" />
            <mxPoint x="5475" y="860" as="targetPoint" />
          </mxGeometry>
        </mxCell>
        <mxCell id="3Yl6NUVvSSKZdZsIhmiR-166" value="" style="endArrow=none;html=1;rounded=0;entryX=0.5;entryY=1;entryDx=0;entryDy=0;exitX=0.037;exitY=0.023;exitDx=0;exitDy=0;exitPerimeter=0;" parent="1" source="3Yl6NUVvSSKZdZsIhmiR-154" target="3Yl6NUVvSSKZdZsIhmiR-156" edge="1">
          <mxGeometry width="50" height="50" relative="1" as="geometry">
            <mxPoint x="5425" y="910" as="sourcePoint" />
            <mxPoint x="5475" y="860" as="targetPoint" />
          </mxGeometry>
        </mxCell>
        <mxCell id="3Yl6NUVvSSKZdZsIhmiR-167" value="" style="endArrow=none;html=1;rounded=0;entryX=0.971;entryY=0.973;entryDx=0;entryDy=0;entryPerimeter=0;exitX=0.5;exitY=0;exitDx=0;exitDy=0;" parent="1" source="3Yl6NUVvSSKZdZsIhmiR-161" target="3Yl6NUVvSSKZdZsIhmiR-154" edge="1">
          <mxGeometry width="50" height="50" relative="1" as="geometry">
            <mxPoint x="5565" y="940" as="sourcePoint" />
            <mxPoint x="5615" y="890" as="targetPoint" />
          </mxGeometry>
        </mxCell>
        <mxCell id="3Yl6NUVvSSKZdZsIhmiR-168" value="" style="endArrow=none;html=1;rounded=0;exitX=1;exitY=0.5;exitDx=0;exitDy=0;entryX=0;entryY=0.5;entryDx=0;entryDy=0;" parent="1" source="3Yl6NUVvSSKZdZsIhmiR-154" target="3Yl6NUVvSSKZdZsIhmiR-160" edge="1">
          <mxGeometry width="50" height="50" relative="1" as="geometry">
            <mxPoint x="5565" y="940" as="sourcePoint" />
            <mxPoint x="5575" y="890" as="targetPoint" />
          </mxGeometry>
        </mxCell>
        <mxCell id="3Yl6NUVvSSKZdZsIhmiR-200" value="Watchmen" style="rounded=1;whiteSpace=wrap;html=1;" parent="1" vertex="1">
          <mxGeometry x="6310" y="1100" width="120" height="60" as="geometry" />
        </mxCell>
        <mxCell id="3Yl6NUVvSSKZdZsIhmiR-201" value="id" style="ellipse;whiteSpace=wrap;html=1;" parent="1" vertex="1">
          <mxGeometry x="6210" y="1230" width="120" height="60" as="geometry" />
        </mxCell>
        <mxCell id="3Yl6NUVvSSKZdZsIhmiR-202" value="last_name" style="ellipse;whiteSpace=wrap;html=1;" parent="1" vertex="1">
          <mxGeometry x="6220" y="970" width="120" height="60" as="geometry" />
        </mxCell>
        <mxCell id="3Yl6NUVvSSKZdZsIhmiR-203" value="first_name" style="ellipse;whiteSpace=wrap;html=1;" parent="1" vertex="1">
          <mxGeometry x="6130" y="1100" width="120" height="60" as="geometry" />
        </mxCell>
        <mxCell id="3Yl6NUVvSSKZdZsIhmiR-205" value="age" style="ellipse;whiteSpace=wrap;html=1;" parent="1" vertex="1">
          <mxGeometry x="6420" y="970" width="120" height="60" as="geometry" />
        </mxCell>
        <mxCell id="3Yl6NUVvSSKZdZsIhmiR-206" value="gender" style="ellipse;whiteSpace=wrap;html=1;" parent="1" vertex="1">
          <mxGeometry x="6500" y="1100" width="120" height="60" as="geometry" />
        </mxCell>
        <mxCell id="3Yl6NUVvSSKZdZsIhmiR-207" value="assigned_zone" style="ellipse;whiteSpace=wrap;html=1;" parent="1" vertex="1">
          <mxGeometry x="6420" y="1230" width="120" height="60" as="geometry" />
        </mxCell>
        <mxCell id="3Yl6NUVvSSKZdZsIhmiR-208" value="" style="endArrow=none;html=1;rounded=0;entryX=0;entryY=0.5;entryDx=0;entryDy=0;exitX=1;exitY=0.5;exitDx=0;exitDy=0;" parent="1" source="3Yl6NUVvSSKZdZsIhmiR-203" target="3Yl6NUVvSSKZdZsIhmiR-200" edge="1">
          <mxGeometry width="50" height="50" relative="1" as="geometry">
            <mxPoint x="6190" y="1200" as="sourcePoint" />
            <mxPoint x="6240" y="1150" as="targetPoint" />
          </mxGeometry>
        </mxCell>
        <mxCell id="3Yl6NUVvSSKZdZsIhmiR-209" value="" style="endArrow=none;html=1;rounded=0;entryX=0.028;entryY=0.965;entryDx=0;entryDy=0;entryPerimeter=0;exitX=0.5;exitY=0;exitDx=0;exitDy=0;" parent="1" source="3Yl6NUVvSSKZdZsIhmiR-201" target="3Yl6NUVvSSKZdZsIhmiR-200" edge="1">
          <mxGeometry width="50" height="50" relative="1" as="geometry">
            <mxPoint x="6190" y="1200" as="sourcePoint" />
            <mxPoint x="6240" y="1150" as="targetPoint" />
          </mxGeometry>
        </mxCell>
        <mxCell id="3Yl6NUVvSSKZdZsIhmiR-210" value="" style="endArrow=none;html=1;rounded=0;entryX=0.5;entryY=1;entryDx=0;entryDy=0;exitX=0.961;exitY=0.023;exitDx=0;exitDy=0;exitPerimeter=0;" parent="1" source="3Yl6NUVvSSKZdZsIhmiR-200" target="3Yl6NUVvSSKZdZsIhmiR-205" edge="1">
          <mxGeometry width="50" height="50" relative="1" as="geometry">
            <mxPoint x="6440" y="1080" as="sourcePoint" />
            <mxPoint x="6390" y="1100" as="targetPoint" />
          </mxGeometry>
        </mxCell>
        <mxCell id="3Yl6NUVvSSKZdZsIhmiR-212" value="" style="endArrow=none;html=1;rounded=0;entryX=0.5;entryY=1;entryDx=0;entryDy=0;exitX=0.037;exitY=0.023;exitDx=0;exitDy=0;exitPerimeter=0;" parent="1" source="3Yl6NUVvSSKZdZsIhmiR-200" target="3Yl6NUVvSSKZdZsIhmiR-202" edge="1">
          <mxGeometry width="50" height="50" relative="1" as="geometry">
            <mxPoint x="6340" y="1150" as="sourcePoint" />
            <mxPoint x="6390" y="1100" as="targetPoint" />
          </mxGeometry>
        </mxCell>
        <mxCell id="3Yl6NUVvSSKZdZsIhmiR-213" value="" style="endArrow=none;html=1;rounded=0;entryX=0.971;entryY=0.973;entryDx=0;entryDy=0;entryPerimeter=0;exitX=0.5;exitY=0;exitDx=0;exitDy=0;" parent="1" source="3Yl6NUVvSSKZdZsIhmiR-207" target="3Yl6NUVvSSKZdZsIhmiR-200" edge="1">
          <mxGeometry width="50" height="50" relative="1" as="geometry">
            <mxPoint x="6480" y="1180" as="sourcePoint" />
            <mxPoint x="6530" y="1130" as="targetPoint" />
          </mxGeometry>
        </mxCell>
        <mxCell id="3Yl6NUVvSSKZdZsIhmiR-214" value="" style="endArrow=none;html=1;rounded=0;exitX=1;exitY=0.5;exitDx=0;exitDy=0;entryX=0;entryY=0.5;entryDx=0;entryDy=0;" parent="1" source="3Yl6NUVvSSKZdZsIhmiR-200" target="3Yl6NUVvSSKZdZsIhmiR-206" edge="1">
          <mxGeometry width="50" height="50" relative="1" as="geometry">
            <mxPoint x="6480" y="1180" as="sourcePoint" />
            <mxPoint x="6490" y="1130" as="targetPoint" />
          </mxGeometry>
        </mxCell>
        <mxCell id="3Yl6NUVvSSKZdZsIhmiR-216" value="Bills" style="rounded=1;whiteSpace=wrap;html=1;" parent="1" vertex="1">
          <mxGeometry x="5700" y="1220" width="120" height="60" as="geometry" />
        </mxCell>
        <mxCell id="3Yl6NUVvSSKZdZsIhmiR-217" value="id" style="ellipse;whiteSpace=wrap;html=1;" parent="1" vertex="1">
          <mxGeometry x="5570" y="1310" width="120" height="60" as="geometry" />
        </mxCell>
        <mxCell id="3Yl6NUVvSSKZdZsIhmiR-218" value="name" style="ellipse;whiteSpace=wrap;html=1;" parent="1" vertex="1">
          <mxGeometry x="5570" y="1130" width="120" height="60" as="geometry" />
        </mxCell>
        <mxCell id="3Yl6NUVvSSKZdZsIhmiR-219" value="sum" style="ellipse;whiteSpace=wrap;html=1;" parent="1" vertex="1">
          <mxGeometry x="5700" y="1090" width="120" height="60" as="geometry" />
        </mxCell>
        <mxCell id="3Yl6NUVvSSKZdZsIhmiR-220" value="state" style="ellipse;whiteSpace=wrap;html=1;" parent="1" vertex="1">
          <mxGeometry x="5830" y="1130" width="120" height="60" as="geometry" />
        </mxCell>
        <mxCell id="3Yl6NUVvSSKZdZsIhmiR-222" value="patient_id" style="ellipse;whiteSpace=wrap;html=1;" parent="1" vertex="1">
          <mxGeometry x="5830" y="1310" width="120" height="60" as="geometry" />
        </mxCell>
        <mxCell id="3Yl6NUVvSSKZdZsIhmiR-223" value="" style="endArrow=none;html=1;rounded=0;entryX=0.5;entryY=0;entryDx=0;entryDy=0;exitX=0.5;exitY=1;exitDx=0;exitDy=0;" parent="1" source="3Yl6NUVvSSKZdZsIhmiR-219" target="3Yl6NUVvSSKZdZsIhmiR-216" edge="1">
          <mxGeometry width="50" height="50" relative="1" as="geometry">
            <mxPoint x="5580" y="1320" as="sourcePoint" />
            <mxPoint x="5630" y="1270" as="targetPoint" />
          </mxGeometry>
        </mxCell>
        <mxCell id="3Yl6NUVvSSKZdZsIhmiR-224" value="" style="endArrow=none;html=1;rounded=0;entryX=0.028;entryY=0.965;entryDx=0;entryDy=0;entryPerimeter=0;exitX=0.5;exitY=0;exitDx=0;exitDy=0;" parent="1" source="3Yl6NUVvSSKZdZsIhmiR-217" target="3Yl6NUVvSSKZdZsIhmiR-216" edge="1">
          <mxGeometry width="50" height="50" relative="1" as="geometry">
            <mxPoint x="5580" y="1320" as="sourcePoint" />
            <mxPoint x="5630" y="1270" as="targetPoint" />
          </mxGeometry>
        </mxCell>
        <mxCell id="3Yl6NUVvSSKZdZsIhmiR-225" value="" style="endArrow=none;html=1;rounded=0;entryX=0.5;entryY=1;entryDx=0;entryDy=0;exitX=0.961;exitY=0.023;exitDx=0;exitDy=0;exitPerimeter=0;" parent="1" source="3Yl6NUVvSSKZdZsIhmiR-216" target="3Yl6NUVvSSKZdZsIhmiR-220" edge="1">
          <mxGeometry width="50" height="50" relative="1" as="geometry">
            <mxPoint x="5830" y="1200" as="sourcePoint" />
            <mxPoint x="5780" y="1220" as="targetPoint" />
          </mxGeometry>
        </mxCell>
        <mxCell id="3Yl6NUVvSSKZdZsIhmiR-226" value="" style="endArrow=none;html=1;rounded=0;entryX=0.5;entryY=1;entryDx=0;entryDy=0;exitX=0.037;exitY=0.023;exitDx=0;exitDy=0;exitPerimeter=0;" parent="1" source="3Yl6NUVvSSKZdZsIhmiR-216" target="3Yl6NUVvSSKZdZsIhmiR-218" edge="1">
          <mxGeometry width="50" height="50" relative="1" as="geometry">
            <mxPoint x="5730" y="1270" as="sourcePoint" />
            <mxPoint x="5780" y="1220" as="targetPoint" />
          </mxGeometry>
        </mxCell>
        <mxCell id="3Yl6NUVvSSKZdZsIhmiR-227" value="" style="endArrow=none;html=1;rounded=0;entryX=0.971;entryY=0.973;entryDx=0;entryDy=0;entryPerimeter=0;exitX=0.5;exitY=0;exitDx=0;exitDy=0;" parent="1" source="3Yl6NUVvSSKZdZsIhmiR-222" target="3Yl6NUVvSSKZdZsIhmiR-216" edge="1">
          <mxGeometry width="50" height="50" relative="1" as="geometry">
            <mxPoint x="5870" y="1300" as="sourcePoint" />
            <mxPoint x="5920" y="1250" as="targetPoint" />
          </mxGeometry>
        </mxCell>
        <mxCell id="3Yl6NUVvSSKZdZsIhmiR-242" value="Medicines" style="rounded=1;whiteSpace=wrap;html=1;" parent="1" vertex="1">
          <mxGeometry x="6670" y="1680" width="120" height="60" as="geometry" />
        </mxCell>
        <mxCell id="3Yl6NUVvSSKZdZsIhmiR-243" value="id" style="ellipse;whiteSpace=wrap;html=1;" parent="1" vertex="1">
          <mxGeometry x="6540" y="1770" width="120" height="60" as="geometry" />
        </mxCell>
        <mxCell id="3Yl6NUVvSSKZdZsIhmiR-244" value="name" style="ellipse;whiteSpace=wrap;html=1;" parent="1" vertex="1">
          <mxGeometry x="6540" y="1590" width="120" height="60" as="geometry" />
        </mxCell>
        <mxCell id="3Yl6NUVvSSKZdZsIhmiR-245" value="expiration_date" style="ellipse;whiteSpace=wrap;html=1;" parent="1" vertex="1">
          <mxGeometry x="6670" y="1550" width="120" height="60" as="geometry" />
        </mxCell>
        <mxCell id="3Yl6NUVvSSKZdZsIhmiR-246" value="state" style="ellipse;whiteSpace=wrap;html=1;" parent="1" vertex="1">
          <mxGeometry x="6800" y="1590" width="120" height="60" as="geometry" />
        </mxCell>
        <mxCell id="3Yl6NUVvSSKZdZsIhmiR-247" value="patient_id" style="ellipse;whiteSpace=wrap;html=1;" parent="1" vertex="1">
          <mxGeometry x="6800" y="1770" width="120" height="60" as="geometry" />
        </mxCell>
        <mxCell id="3Yl6NUVvSSKZdZsIhmiR-248" value="" style="endArrow=none;html=1;rounded=0;entryX=0.5;entryY=0;entryDx=0;entryDy=0;exitX=0.5;exitY=1;exitDx=0;exitDy=0;" parent="1" source="3Yl6NUVvSSKZdZsIhmiR-245" target="3Yl6NUVvSSKZdZsIhmiR-242" edge="1">
          <mxGeometry width="50" height="50" relative="1" as="geometry">
            <mxPoint x="6550" y="1780" as="sourcePoint" />
            <mxPoint x="6600" y="1730" as="targetPoint" />
          </mxGeometry>
        </mxCell>
        <mxCell id="3Yl6NUVvSSKZdZsIhmiR-249" value="" style="endArrow=none;html=1;rounded=0;entryX=0.028;entryY=0.965;entryDx=0;entryDy=0;entryPerimeter=0;exitX=0.5;exitY=0;exitDx=0;exitDy=0;" parent="1" source="3Yl6NUVvSSKZdZsIhmiR-243" target="3Yl6NUVvSSKZdZsIhmiR-242" edge="1">
          <mxGeometry width="50" height="50" relative="1" as="geometry">
            <mxPoint x="6550" y="1780" as="sourcePoint" />
            <mxPoint x="6600" y="1730" as="targetPoint" />
          </mxGeometry>
        </mxCell>
        <mxCell id="3Yl6NUVvSSKZdZsIhmiR-250" value="" style="endArrow=none;html=1;rounded=0;entryX=0.5;entryY=1;entryDx=0;entryDy=0;exitX=0.961;exitY=0.023;exitDx=0;exitDy=0;exitPerimeter=0;" parent="1" source="3Yl6NUVvSSKZdZsIhmiR-242" target="3Yl6NUVvSSKZdZsIhmiR-246" edge="1">
          <mxGeometry width="50" height="50" relative="1" as="geometry">
            <mxPoint x="6800" y="1660" as="sourcePoint" />
            <mxPoint x="6750" y="1680" as="targetPoint" />
          </mxGeometry>
        </mxCell>
        <mxCell id="3Yl6NUVvSSKZdZsIhmiR-251" value="" style="endArrow=none;html=1;rounded=0;entryX=0.5;entryY=1;entryDx=0;entryDy=0;exitX=0.037;exitY=0.023;exitDx=0;exitDy=0;exitPerimeter=0;" parent="1" source="3Yl6NUVvSSKZdZsIhmiR-242" target="3Yl6NUVvSSKZdZsIhmiR-244" edge="1">
          <mxGeometry width="50" height="50" relative="1" as="geometry">
            <mxPoint x="6700" y="1730" as="sourcePoint" />
            <mxPoint x="6750" y="1680" as="targetPoint" />
          </mxGeometry>
        </mxCell>
        <mxCell id="3Yl6NUVvSSKZdZsIhmiR-252" value="" style="endArrow=none;html=1;rounded=0;entryX=0.971;entryY=0.973;entryDx=0;entryDy=0;entryPerimeter=0;exitX=0.5;exitY=0;exitDx=0;exitDy=0;" parent="1" source="3Yl6NUVvSSKZdZsIhmiR-247" target="3Yl6NUVvSSKZdZsIhmiR-242" edge="1">
          <mxGeometry width="50" height="50" relative="1" as="geometry">
            <mxPoint x="6840" y="1760" as="sourcePoint" />
            <mxPoint x="6890" y="1710" as="targetPoint" />
          </mxGeometry>
        </mxCell>
        <mxCell id="3Yl6NUVvSSKZdZsIhmiR-253" value="Apprentices" style="rounded=1;whiteSpace=wrap;html=1;" parent="1" vertex="1">
          <mxGeometry x="4100" y="2630" width="120" height="60" as="geometry" />
        </mxCell>
        <mxCell id="3Yl6NUVvSSKZdZsIhmiR-254" value="id" style="ellipse;whiteSpace=wrap;html=1;" parent="1" vertex="1">
          <mxGeometry x="3900" y="2710" width="120" height="60" as="geometry" />
        </mxCell>
        <mxCell id="3Yl6NUVvSSKZdZsIhmiR-255" value="last_name" style="ellipse;whiteSpace=wrap;html=1;" parent="1" vertex="1">
          <mxGeometry x="3900" y="2550" width="120" height="60" as="geometry" />
        </mxCell>
        <mxCell id="3Yl6NUVvSSKZdZsIhmiR-256" value="first_name" style="ellipse;whiteSpace=wrap;html=1;" parent="1" vertex="1">
          <mxGeometry x="3870" y="2630" width="120" height="60" as="geometry" />
        </mxCell>
        <mxCell id="3Yl6NUVvSSKZdZsIhmiR-257" value="age" style="ellipse;whiteSpace=wrap;html=1;" parent="1" vertex="1">
          <mxGeometry x="3980" y="2480" width="120" height="60" as="geometry" />
        </mxCell>
        <mxCell id="3Yl6NUVvSSKZdZsIhmiR-258" value="gender" style="ellipse;whiteSpace=wrap;html=1;" parent="1" vertex="1">
          <mxGeometry x="4100" y="2440" width="120" height="60" as="geometry" />
        </mxCell>
        <mxCell id="3Yl6NUVvSSKZdZsIhmiR-259" value="university" style="ellipse;whiteSpace=wrap;html=1;" parent="1" vertex="1">
          <mxGeometry x="4220" y="2480" width="120" height="60" as="geometry" />
        </mxCell>
        <mxCell id="3Yl6NUVvSSKZdZsIhmiR-260" value="study_year" style="ellipse;whiteSpace=wrap;html=1;" parent="1" vertex="1">
          <mxGeometry x="4300" y="2550" width="120" height="60" as="geometry" />
        </mxCell>
        <mxCell id="3Yl6NUVvSSKZdZsIhmiR-261" value="specialization" style="ellipse;whiteSpace=wrap;html=1;" parent="1" vertex="1">
          <mxGeometry x="4320" y="2630" width="120" height="60" as="geometry" />
        </mxCell>
        <mxCell id="3Yl6NUVvSSKZdZsIhmiR-262" value="doctor_id" style="ellipse;whiteSpace=wrap;html=1;" parent="1" vertex="1">
          <mxGeometry x="4300" y="2710" width="120" height="60" as="geometry" />
        </mxCell>
        <mxCell id="3Yl6NUVvSSKZdZsIhmiR-264" value="" style="endArrow=none;html=1;rounded=0;entryX=0;entryY=0.5;entryDx=0;entryDy=0;exitX=1;exitY=0.5;exitDx=0;exitDy=0;" parent="1" source="3Yl6NUVvSSKZdZsIhmiR-256" target="3Yl6NUVvSSKZdZsIhmiR-253" edge="1">
          <mxGeometry width="50" height="50" relative="1" as="geometry">
            <mxPoint x="3990.0000000000446" y="2660" as="sourcePoint" />
            <mxPoint x="4100" y="2710" as="targetPoint" />
          </mxGeometry>
        </mxCell>
        <mxCell id="3Yl6NUVvSSKZdZsIhmiR-265" value="" style="endArrow=none;html=1;rounded=0;entryX=0;entryY=0.25;entryDx=0;entryDy=0;exitX=1;exitY=0.5;exitDx=0;exitDy=0;" parent="1" source="3Yl6NUVvSSKZdZsIhmiR-255" target="3Yl6NUVvSSKZdZsIhmiR-253" edge="1">
          <mxGeometry width="50" height="50" relative="1" as="geometry">
            <mxPoint x="4050" y="2720" as="sourcePoint" />
            <mxPoint x="4100" y="2670" as="targetPoint" />
          </mxGeometry>
        </mxCell>
        <mxCell id="3Yl6NUVvSSKZdZsIhmiR-266" value="" style="endArrow=none;html=1;rounded=0;exitX=0.5;exitY=1;exitDx=0;exitDy=0;" parent="1" source="3Yl6NUVvSSKZdZsIhmiR-257" edge="1">
          <mxGeometry width="50" height="50" relative="1" as="geometry">
            <mxPoint x="4050" y="2720" as="sourcePoint" />
            <mxPoint x="4130" y="2630" as="targetPoint" />
          </mxGeometry>
        </mxCell>
        <mxCell id="3Yl6NUVvSSKZdZsIhmiR-267" value="" style="endArrow=none;html=1;rounded=0;entryX=0.5;entryY=0;entryDx=0;entryDy=0;exitX=0.5;exitY=1;exitDx=0;exitDy=0;" parent="1" source="3Yl6NUVvSSKZdZsIhmiR-258" target="3Yl6NUVvSSKZdZsIhmiR-253" edge="1">
          <mxGeometry width="50" height="50" relative="1" as="geometry">
            <mxPoint x="4050" y="2640" as="sourcePoint" />
            <mxPoint x="4100" y="2590" as="targetPoint" />
          </mxGeometry>
        </mxCell>
        <mxCell id="3Yl6NUVvSSKZdZsIhmiR-268" value="" style="endArrow=none;html=1;rounded=0;entryX=0.5;entryY=1;entryDx=0;entryDy=0;exitX=0.75;exitY=0;exitDx=0;exitDy=0;" parent="1" source="3Yl6NUVvSSKZdZsIhmiR-253" target="3Yl6NUVvSSKZdZsIhmiR-259" edge="1">
          <mxGeometry width="50" height="50" relative="1" as="geometry">
            <mxPoint x="4080" y="2680" as="sourcePoint" />
            <mxPoint x="4130" y="2630" as="targetPoint" />
          </mxGeometry>
        </mxCell>
        <mxCell id="3Yl6NUVvSSKZdZsIhmiR-269" value="" style="endArrow=none;html=1;rounded=0;entryX=-0.007;entryY=0.598;entryDx=0;entryDy=0;entryPerimeter=0;exitX=1;exitY=0.25;exitDx=0;exitDy=0;" parent="1" source="3Yl6NUVvSSKZdZsIhmiR-253" target="3Yl6NUVvSSKZdZsIhmiR-260" edge="1">
          <mxGeometry width="50" height="50" relative="1" as="geometry">
            <mxPoint x="4110" y="2690" as="sourcePoint" />
            <mxPoint x="4160" y="2640" as="targetPoint" />
          </mxGeometry>
        </mxCell>
        <mxCell id="3Yl6NUVvSSKZdZsIhmiR-270" value="" style="endArrow=none;html=1;rounded=0;entryX=1;entryY=0.5;entryDx=0;entryDy=0;exitX=0;exitY=0.75;exitDx=0;exitDy=0;" parent="1" source="3Yl6NUVvSSKZdZsIhmiR-253" target="3Yl6NUVvSSKZdZsIhmiR-254" edge="1">
          <mxGeometry width="50" height="50" relative="1" as="geometry">
            <mxPoint x="4130" y="2710" as="sourcePoint" />
            <mxPoint x="4180" y="2660" as="targetPoint" />
          </mxGeometry>
        </mxCell>
        <mxCell id="3Yl6NUVvSSKZdZsIhmiR-271" value="" style="endArrow=none;html=1;rounded=0;entryX=0;entryY=0.5;entryDx=0;entryDy=0;exitX=1;exitY=0.5;exitDx=0;exitDy=0;" parent="1" source="3Yl6NUVvSSKZdZsIhmiR-253" target="3Yl6NUVvSSKZdZsIhmiR-261" edge="1">
          <mxGeometry width="50" height="50" relative="1" as="geometry">
            <mxPoint x="4200" y="2730" as="sourcePoint" />
            <mxPoint x="4250" y="2680" as="targetPoint" />
          </mxGeometry>
        </mxCell>
        <mxCell id="3Yl6NUVvSSKZdZsIhmiR-272" value="" style="endArrow=none;html=1;rounded=0;entryX=0;entryY=0.5;entryDx=0;entryDy=0;exitX=1;exitY=0.75;exitDx=0;exitDy=0;" parent="1" source="3Yl6NUVvSSKZdZsIhmiR-253" target="3Yl6NUVvSSKZdZsIhmiR-262" edge="1">
          <mxGeometry width="50" height="50" relative="1" as="geometry">
            <mxPoint x="4200" y="2730" as="sourcePoint" />
            <mxPoint x="4250" y="2680" as="targetPoint" />
          </mxGeometry>
        </mxCell>
        <mxCell id="3Yl6NUVvSSKZdZsIhmiR-274" value="Purchases" style="rounded=1;whiteSpace=wrap;html=1;" parent="1" vertex="1">
          <mxGeometry x="5350" y="2340" width="120" height="60" as="geometry" />
        </mxCell>
        <mxCell id="3Yl6NUVvSSKZdZsIhmiR-275" value="id" style="ellipse;whiteSpace=wrap;html=1;" parent="1" vertex="1">
          <mxGeometry x="5180" y="2340" width="120" height="60" as="geometry" />
        </mxCell>
        <mxCell id="3Yl6NUVvSSKZdZsIhmiR-276" value="name" style="ellipse;whiteSpace=wrap;html=1;" parent="1" vertex="1">
          <mxGeometry x="5260" y="2230" width="120" height="60" as="geometry" />
        </mxCell>
        <mxCell id="3Yl6NUVvSSKZdZsIhmiR-277" value="medicine_id" style="ellipse;whiteSpace=wrap;html=1;" parent="1" vertex="1">
          <mxGeometry x="5520" y="2340" width="120" height="60" as="geometry" />
        </mxCell>
        <mxCell id="3Yl6NUVvSSKZdZsIhmiR-278" value="sum" style="ellipse;whiteSpace=wrap;html=1;" parent="1" vertex="1">
          <mxGeometry x="5460" y="2230" width="120" height="60" as="geometry" />
        </mxCell>
        <mxCell id="3Yl6NUVvSSKZdZsIhmiR-279" value="" style="endArrow=none;html=1;rounded=0;exitX=0;exitY=0.5;exitDx=0;exitDy=0;entryX=1;entryY=0.5;entryDx=0;entryDy=0;" parent="1" source="3Yl6NUVvSSKZdZsIhmiR-274" target="3Yl6NUVvSSKZdZsIhmiR-275" edge="1">
          <mxGeometry width="50" height="50" relative="1" as="geometry">
            <mxPoint x="5360" y="2250" as="sourcePoint" />
            <mxPoint x="5320" y="2380" as="targetPoint" />
          </mxGeometry>
        </mxCell>
        <mxCell id="3Yl6NUVvSSKZdZsIhmiR-280" value="quantity" style="ellipse;whiteSpace=wrap;html=1;" parent="1" vertex="1">
          <mxGeometry x="5520" y="2340" width="120" height="60" as="geometry" />
        </mxCell>
        <mxCell id="3Yl6NUVvSSKZdZsIhmiR-281" value="" style="endArrow=none;html=1;rounded=0;entryX=0.5;entryY=1;entryDx=0;entryDy=0;exitX=0.25;exitY=0;exitDx=0;exitDy=0;" parent="1" source="3Yl6NUVvSSKZdZsIhmiR-274" target="3Yl6NUVvSSKZdZsIhmiR-276" edge="1">
          <mxGeometry width="50" height="50" relative="1" as="geometry">
            <mxPoint x="5480" y="2340" as="sourcePoint" />
            <mxPoint x="5530" y="2290" as="targetPoint" />
          </mxGeometry>
        </mxCell>
        <mxCell id="3Yl6NUVvSSKZdZsIhmiR-282" value="" style="endArrow=none;html=1;rounded=0;exitX=0.75;exitY=0;exitDx=0;exitDy=0;entryX=0.5;entryY=1;entryDx=0;entryDy=0;" parent="1" source="3Yl6NUVvSSKZdZsIhmiR-274" target="3Yl6NUVvSSKZdZsIhmiR-278" edge="1">
          <mxGeometry width="50" height="50" relative="1" as="geometry">
            <mxPoint x="5480" y="2340" as="sourcePoint" />
            <mxPoint x="5530" y="2290" as="targetPoint" />
          </mxGeometry>
        </mxCell>
        <mxCell id="3Yl6NUVvSSKZdZsIhmiR-283" value="" style="endArrow=none;html=1;rounded=0;entryX=0;entryY=0.5;entryDx=0;entryDy=0;exitX=1;exitY=0.5;exitDx=0;exitDy=0;" parent="1" source="3Yl6NUVvSSKZdZsIhmiR-274" target="3Yl6NUVvSSKZdZsIhmiR-280" edge="1">
          <mxGeometry width="50" height="50" relative="1" as="geometry">
            <mxPoint x="5490" y="2330" as="sourcePoint" />
            <mxPoint x="5540" y="2280" as="targetPoint" />
          </mxGeometry>
        </mxCell>
        <mxCell id="3Yl6NUVvSSKZdZsIhmiR-284" value="Shifts" style="rounded=1;whiteSpace=wrap;html=1;" parent="1" vertex="1">
          <mxGeometry x="5980" y="2350" width="120" height="60" as="geometry" />
        </mxCell>
        <mxCell id="3Yl6NUVvSSKZdZsIhmiR-285" value="id" style="ellipse;whiteSpace=wrap;html=1;" parent="1" vertex="1">
          <mxGeometry x="5810" y="2350" width="120" height="60" as="geometry" />
        </mxCell>
        <mxCell id="3Yl6NUVvSSKZdZsIhmiR-286" value="begin_time" style="ellipse;whiteSpace=wrap;html=1;" parent="1" vertex="1">
          <mxGeometry x="5890" y="2240" width="120" height="60" as="geometry" />
        </mxCell>
        <mxCell id="3Yl6NUVvSSKZdZsIhmiR-287" value="medicine_id" style="ellipse;whiteSpace=wrap;html=1;" parent="1" vertex="1">
          <mxGeometry x="6150" y="2350" width="120" height="60" as="geometry" />
        </mxCell>
        <mxCell id="3Yl6NUVvSSKZdZsIhmiR-288" value="end_time" style="ellipse;whiteSpace=wrap;html=1;" parent="1" vertex="1">
          <mxGeometry x="6090" y="2240" width="120" height="60" as="geometry" />
        </mxCell>
        <mxCell id="3Yl6NUVvSSKZdZsIhmiR-289" value="" style="endArrow=none;html=1;rounded=0;exitX=0;exitY=0.5;exitDx=0;exitDy=0;entryX=1;entryY=0.5;entryDx=0;entryDy=0;" parent="1" source="3Yl6NUVvSSKZdZsIhmiR-284" target="3Yl6NUVvSSKZdZsIhmiR-285" edge="1">
          <mxGeometry width="50" height="50" relative="1" as="geometry">
            <mxPoint x="5990" y="2260" as="sourcePoint" />
            <mxPoint x="5950" y="2390" as="targetPoint" />
          </mxGeometry>
        </mxCell>
        <mxCell id="3Yl6NUVvSSKZdZsIhmiR-290" value="description" style="ellipse;whiteSpace=wrap;html=1;" parent="1" vertex="1">
          <mxGeometry x="6150" y="2350" width="120" height="60" as="geometry" />
        </mxCell>
        <mxCell id="3Yl6NUVvSSKZdZsIhmiR-291" value="" style="endArrow=none;html=1;rounded=0;entryX=0.5;entryY=1;entryDx=0;entryDy=0;exitX=0.25;exitY=0;exitDx=0;exitDy=0;" parent="1" source="3Yl6NUVvSSKZdZsIhmiR-284" target="3Yl6NUVvSSKZdZsIhmiR-286" edge="1">
          <mxGeometry width="50" height="50" relative="1" as="geometry">
            <mxPoint x="6110" y="2350" as="sourcePoint" />
            <mxPoint x="6160" y="2300" as="targetPoint" />
          </mxGeometry>
        </mxCell>
        <mxCell id="3Yl6NUVvSSKZdZsIhmiR-292" value="" style="endArrow=none;html=1;rounded=0;exitX=0.75;exitY=0;exitDx=0;exitDy=0;entryX=0.5;entryY=1;entryDx=0;entryDy=0;" parent="1" source="3Yl6NUVvSSKZdZsIhmiR-284" target="3Yl6NUVvSSKZdZsIhmiR-288" edge="1">
          <mxGeometry width="50" height="50" relative="1" as="geometry">
            <mxPoint x="6110" y="2350" as="sourcePoint" />
            <mxPoint x="6160" y="2300" as="targetPoint" />
          </mxGeometry>
        </mxCell>
        <mxCell id="3Yl6NUVvSSKZdZsIhmiR-293" value="" style="endArrow=none;html=1;rounded=0;entryX=0;entryY=0.5;entryDx=0;entryDy=0;exitX=1;exitY=0.5;exitDx=0;exitDy=0;" parent="1" source="3Yl6NUVvSSKZdZsIhmiR-284" target="3Yl6NUVvSSKZdZsIhmiR-290" edge="1">
          <mxGeometry width="50" height="50" relative="1" as="geometry">
            <mxPoint x="6120" y="2340" as="sourcePoint" />
            <mxPoint x="6170" y="2290" as="targetPoint" />
          </mxGeometry>
        </mxCell>
        <mxCell id="3Yl6NUVvSSKZdZsIhmiR-294" value="Partners" style="rounded=1;whiteSpace=wrap;html=1;" parent="1" vertex="1">
          <mxGeometry x="6640" y="2280" width="120" height="60" as="geometry" />
        </mxCell>
        <mxCell id="3Yl6NUVvSSKZdZsIhmiR-295" value="id" style="ellipse;whiteSpace=wrap;html=1;" parent="1" vertex="1">
          <mxGeometry x="6510" y="2370" width="120" height="60" as="geometry" />
        </mxCell>
        <mxCell id="3Yl6NUVvSSKZdZsIhmiR-296" value="name" style="ellipse;whiteSpace=wrap;html=1;" parent="1" vertex="1">
          <mxGeometry x="6510" y="2190" width="120" height="60" as="geometry" />
        </mxCell>
        <mxCell id="3Yl6NUVvSSKZdZsIhmiR-297" value="partnership_type" style="ellipse;whiteSpace=wrap;html=1;" parent="1" vertex="1">
          <mxGeometry x="6640" y="2150" width="120" height="60" as="geometry" />
        </mxCell>
        <mxCell id="3Yl6NUVvSSKZdZsIhmiR-298" value="begin_date" style="ellipse;whiteSpace=wrap;html=1;" parent="1" vertex="1">
          <mxGeometry x="6770" y="2190" width="120" height="60" as="geometry" />
        </mxCell>
        <mxCell id="3Yl6NUVvSSKZdZsIhmiR-299" value="end_date" style="ellipse;whiteSpace=wrap;html=1;" parent="1" vertex="1">
          <mxGeometry x="6770" y="2370" width="120" height="60" as="geometry" />
        </mxCell>
        <mxCell id="3Yl6NUVvSSKZdZsIhmiR-300" value="" style="endArrow=none;html=1;rounded=0;entryX=0.5;entryY=0;entryDx=0;entryDy=0;exitX=0.5;exitY=1;exitDx=0;exitDy=0;" parent="1" source="3Yl6NUVvSSKZdZsIhmiR-297" target="3Yl6NUVvSSKZdZsIhmiR-294" edge="1">
          <mxGeometry width="50" height="50" relative="1" as="geometry">
            <mxPoint x="6520" y="2380" as="sourcePoint" />
            <mxPoint x="6570" y="2330" as="targetPoint" />
          </mxGeometry>
        </mxCell>
        <mxCell id="3Yl6NUVvSSKZdZsIhmiR-301" value="" style="endArrow=none;html=1;rounded=0;entryX=0.028;entryY=0.965;entryDx=0;entryDy=0;entryPerimeter=0;exitX=0.5;exitY=0;exitDx=0;exitDy=0;" parent="1" source="3Yl6NUVvSSKZdZsIhmiR-295" target="3Yl6NUVvSSKZdZsIhmiR-294" edge="1">
          <mxGeometry width="50" height="50" relative="1" as="geometry">
            <mxPoint x="6520" y="2380" as="sourcePoint" />
            <mxPoint x="6570" y="2330" as="targetPoint" />
          </mxGeometry>
        </mxCell>
        <mxCell id="3Yl6NUVvSSKZdZsIhmiR-302" value="" style="endArrow=none;html=1;rounded=0;entryX=0.5;entryY=1;entryDx=0;entryDy=0;exitX=0.961;exitY=0.023;exitDx=0;exitDy=0;exitPerimeter=0;" parent="1" source="3Yl6NUVvSSKZdZsIhmiR-294" target="3Yl6NUVvSSKZdZsIhmiR-298" edge="1">
          <mxGeometry width="50" height="50" relative="1" as="geometry">
            <mxPoint x="6770" y="2260" as="sourcePoint" />
            <mxPoint x="6720" y="2280" as="targetPoint" />
          </mxGeometry>
        </mxCell>
        <mxCell id="3Yl6NUVvSSKZdZsIhmiR-303" value="" style="endArrow=none;html=1;rounded=0;entryX=0.5;entryY=1;entryDx=0;entryDy=0;exitX=0.037;exitY=0.023;exitDx=0;exitDy=0;exitPerimeter=0;" parent="1" source="3Yl6NUVvSSKZdZsIhmiR-294" target="3Yl6NUVvSSKZdZsIhmiR-296" edge="1">
          <mxGeometry width="50" height="50" relative="1" as="geometry">
            <mxPoint x="6670" y="2330" as="sourcePoint" />
            <mxPoint x="6720" y="2280" as="targetPoint" />
          </mxGeometry>
        </mxCell>
        <mxCell id="3Yl6NUVvSSKZdZsIhmiR-304" value="" style="endArrow=none;html=1;rounded=0;entryX=0.971;entryY=0.973;entryDx=0;entryDy=0;entryPerimeter=0;exitX=0.5;exitY=0;exitDx=0;exitDy=0;" parent="1" source="3Yl6NUVvSSKZdZsIhmiR-299" target="3Yl6NUVvSSKZdZsIhmiR-294" edge="1">
          <mxGeometry width="50" height="50" relative="1" as="geometry">
            <mxPoint x="6810" y="2360" as="sourcePoint" />
            <mxPoint x="6860" y="2310" as="targetPoint" />
          </mxGeometry>
        </mxCell>
        <mxCell id="3Yl6NUVvSSKZdZsIhmiR-307" value="description" style="ellipse;whiteSpace=wrap;html=1;" parent="1" vertex="1">
          <mxGeometry x="6170" y="1840" width="120" height="60" as="geometry" />
        </mxCell>
        <mxCell id="3Yl6NUVvSSKZdZsIhmiR-309" value="medicine_dosage" style="ellipse;whiteSpace=wrap;html=1;" parent="1" vertex="1">
          <mxGeometry x="6370" y="1840" width="120" height="60" as="geometry" />
        </mxCell>
        <mxCell id="3Yl6NUVvSSKZdZsIhmiR-312" value="" style="endArrow=none;html=1;rounded=0;entryX=0.5;entryY=1;entryDx=0;entryDy=0;exitX=0;exitY=0;exitDx=0;exitDy=0;" parent="1" source="3Yl6NUVvSSKZdZsIhmiR-316" target="3Yl6NUVvSSKZdZsIhmiR-307" edge="1">
          <mxGeometry width="50" height="50" relative="1" as="geometry">
            <mxPoint x="6285" y="1950" as="sourcePoint" />
            <mxPoint x="6440" y="1900" as="targetPoint" />
          </mxGeometry>
        </mxCell>
        <mxCell id="3Yl6NUVvSSKZdZsIhmiR-313" value="" style="endArrow=none;html=1;rounded=0;exitX=1;exitY=0;exitDx=0;exitDy=0;entryX=0.5;entryY=1;entryDx=0;entryDy=0;" parent="1" source="3Yl6NUVvSSKZdZsIhmiR-316" target="3Yl6NUVvSSKZdZsIhmiR-309" edge="1">
          <mxGeometry width="50" height="50" relative="1" as="geometry">
            <mxPoint x="6355" y="1950" as="sourcePoint" />
            <mxPoint x="6440" y="1900" as="targetPoint" />
          </mxGeometry>
        </mxCell>
        <mxCell id="3Yl6NUVvSSKZdZsIhmiR-316" value="TreatmentsMedicines" style="shape=rhombus;perimeter=rhombusPerimeter;whiteSpace=wrap;html=1;align=center;" parent="1" vertex="1">
          <mxGeometry x="6230" y="1940" width="180" height="60" as="geometry" />
        </mxCell>
        <mxCell id="3Yl6NUVvSSKZdZsIhmiR-321" value="Pays" style="shape=rhombus;perimeter=rhombusPerimeter;whiteSpace=wrap;html=1;align=center;" parent="1" vertex="1">
          <mxGeometry x="5280" y="1420" width="180" height="60" as="geometry" />
        </mxCell>
        <mxCell id="3Yl6NUVvSSKZdZsIhmiR-322" value="Treats" style="shape=rhombus;perimeter=rhombusPerimeter;whiteSpace=wrap;html=1;align=center;" parent="1" vertex="1">
          <mxGeometry x="4905" y="2080" width="180" height="60" as="geometry" />
        </mxCell>
        <mxCell id="3Yl6NUVvSSKZdZsIhmiR-323" value="Receives" style="shape=rhombus;perimeter=rhombusPerimeter;whiteSpace=wrap;html=1;align=center;" parent="1" vertex="1">
          <mxGeometry x="5470" y="1950" width="180" height="60" as="geometry" />
        </mxCell>
        <mxCell id="3Yl6NUVvSSKZdZsIhmiR-324" value="mentors" style="shape=rhombus;perimeter=rhombusPerimeter;whiteSpace=wrap;html=1;align=center;" parent="1" vertex="1">
          <mxGeometry x="4480" y="2590" width="180" height="60" as="geometry" />
        </mxCell>
        <mxCell id="3Yl6NUVvSSKZdZsIhmiR-325" value="Rests" style="shape=rhombus;perimeter=rhombusPerimeter;whiteSpace=wrap;html=1;align=center;" parent="1" vertex="1">
          <mxGeometry x="4585" y="1390" width="180" height="60" as="geometry" />
        </mxCell>
        <mxCell id="3Yl6NUVvSSKZdZsIhmiR-326" value="" style="endArrow=none;html=1;rounded=0;exitX=0.5;exitY=0;exitDx=0;exitDy=0;entryX=0.5;entryY=1;entryDx=0;entryDy=0;" parent="1" source="3Yl6NUVvSSKZdZsIhmiR-324" target="3Yl6NUVvSSKZdZsIhmiR-47" edge="1">
          <mxGeometry relative="1" as="geometry">
            <mxPoint x="4740" y="2540" as="sourcePoint" />
            <mxPoint x="4900" y="2540" as="targetPoint" />
            <Array as="points">
              <mxPoint x="4720" y="2520" />
            </Array>
          </mxGeometry>
        </mxCell>
        <mxCell id="3Yl6NUVvSSKZdZsIhmiR-327" value="1" style="resizable=0;html=1;whiteSpace=wrap;align=right;verticalAlign=bottom;" parent="3Yl6NUVvSSKZdZsIhmiR-326" connectable="0" vertex="1">
          <mxGeometry x="1" relative="1" as="geometry" />
        </mxCell>
        <mxCell id="3Yl6NUVvSSKZdZsIhmiR-328" value="" style="endArrow=none;html=1;rounded=0;exitX=0.5;exitY=1;exitDx=0;exitDy=0;entryX=0.5;entryY=1;entryDx=0;entryDy=0;" parent="1" source="3Yl6NUVvSSKZdZsIhmiR-324" target="3Yl6NUVvSSKZdZsIhmiR-253" edge="1">
          <mxGeometry relative="1" as="geometry">
            <mxPoint x="4740" y="2540" as="sourcePoint" />
            <mxPoint x="4900" y="2540" as="targetPoint" />
            <Array as="points">
              <mxPoint x="4570" y="2820" />
              <mxPoint x="4160" y="2820" />
            </Array>
          </mxGeometry>
        </mxCell>
        <mxCell id="3Yl6NUVvSSKZdZsIhmiR-329" value="N" style="resizable=0;html=1;whiteSpace=wrap;align=right;verticalAlign=bottom;" parent="3Yl6NUVvSSKZdZsIhmiR-328" connectable="0" vertex="1">
          <mxGeometry x="1" relative="1" as="geometry" />
        </mxCell>
        <mxCell id="TLD4XYsqT-5sJTs0LHMm-3" value="" style="endArrow=none;html=1;rounded=0;entryX=0.75;entryY=1;entryDx=0;entryDy=0;exitX=0.5;exitY=1;exitDx=0;exitDy=0;" parent="1" source="3Yl6NUVvSSKZdZsIhmiR-322" target="3Yl6NUVvSSKZdZsIhmiR-47" edge="1">
          <mxGeometry relative="1" as="geometry">
            <mxPoint x="5120" y="2380" as="sourcePoint" />
            <mxPoint x="5280" y="2380" as="targetPoint" />
            <Array as="points">
              <mxPoint x="5000" y="2600" />
              <mxPoint x="4750" y="2600" />
            </Array>
          </mxGeometry>
        </mxCell>
        <mxCell id="TLD4XYsqT-5sJTs0LHMm-4" value="1" style="resizable=0;html=1;whiteSpace=wrap;align=right;verticalAlign=bottom;" parent="TLD4XYsqT-5sJTs0LHMm-3" connectable="0" vertex="1">
          <mxGeometry x="1" relative="1" as="geometry" />
        </mxCell>
        <mxCell id="TLD4XYsqT-5sJTs0LHMm-5" value="" style="endArrow=none;html=1;rounded=0;exitX=0.5;exitY=0;exitDx=0;exitDy=0;entryX=0.5;entryY=1;entryDx=0;entryDy=0;" parent="1" source="3Yl6NUVvSSKZdZsIhmiR-322" target="3Yl6NUVvSSKZdZsIhmiR-46" edge="1">
          <mxGeometry relative="1" as="geometry">
            <mxPoint x="4990" y="2100" as="sourcePoint" />
            <mxPoint x="5150" y="2100" as="targetPoint" />
          </mxGeometry>
        </mxCell>
        <mxCell id="TLD4XYsqT-5sJTs0LHMm-6" value="N" style="resizable=0;html=1;whiteSpace=wrap;align=right;verticalAlign=bottom;" parent="TLD4XYsqT-5sJTs0LHMm-5" connectable="0" vertex="1">
          <mxGeometry x="1" relative="1" as="geometry" />
        </mxCell>
        <mxCell id="aWvszYgXJ4EFliqO6eZB-3" value="" style="endArrow=none;html=1;rounded=0;entryX=0.5;entryY=1;entryDx=0;entryDy=0;exitX=0;exitY=0.5;exitDx=0;exitDy=0;" edge="1" parent="1" source="3Yl6NUVvSSKZdZsIhmiR-325" target="3Yl6NUVvSSKZdZsIhmiR-127">
          <mxGeometry relative="1" as="geometry">
            <mxPoint x="4980" y="1600" as="sourcePoint" />
            <mxPoint x="5140" y="1600" as="targetPoint" />
          </mxGeometry>
        </mxCell>
        <mxCell id="aWvszYgXJ4EFliqO6eZB-4" value="1" style="resizable=0;html=1;whiteSpace=wrap;align=right;verticalAlign=bottom;" connectable="0" vertex="1" parent="aWvszYgXJ4EFliqO6eZB-3">
          <mxGeometry x="1" relative="1" as="geometry" />
        </mxCell>
        <mxCell id="aWvszYgXJ4EFliqO6eZB-5" value="" style="endArrow=none;html=1;rounded=0;entryX=0.25;entryY=0;entryDx=0;entryDy=0;exitX=1;exitY=0.5;exitDx=0;exitDy=0;" edge="1" parent="1" source="3Yl6NUVvSSKZdZsIhmiR-325" target="3Yl6NUVvSSKZdZsIhmiR-46">
          <mxGeometry relative="1" as="geometry">
            <mxPoint x="4980" y="1600" as="sourcePoint" />
            <mxPoint x="5140" y="1600" as="targetPoint" />
            <Array as="points">
              <mxPoint x="4890" y="1550" />
            </Array>
          </mxGeometry>
        </mxCell>
        <mxCell id="aWvszYgXJ4EFliqO6eZB-6" value="N" style="resizable=0;html=1;whiteSpace=wrap;align=right;verticalAlign=bottom;" connectable="0" vertex="1" parent="aWvszYgXJ4EFliqO6eZB-5">
          <mxGeometry x="1" relative="1" as="geometry" />
        </mxCell>
        <mxCell id="aWvszYgXJ4EFliqO6eZB-7" value="" style="endArrow=none;html=1;rounded=0;entryX=0.5;entryY=1;entryDx=0;entryDy=0;exitX=1;exitY=0.5;exitDx=0;exitDy=0;" edge="1" parent="1" source="3Yl6NUVvSSKZdZsIhmiR-321" target="3Yl6NUVvSSKZdZsIhmiR-216">
          <mxGeometry relative="1" as="geometry">
            <mxPoint x="4920" y="1530" as="sourcePoint" />
            <mxPoint x="5080" y="1530" as="targetPoint" />
            <Array as="points">
              <mxPoint x="5760" y="1450" />
            </Array>
          </mxGeometry>
        </mxCell>
        <mxCell id="aWvszYgXJ4EFliqO6eZB-8" value="1" style="resizable=0;html=1;whiteSpace=wrap;align=right;verticalAlign=bottom;" connectable="0" vertex="1" parent="aWvszYgXJ4EFliqO6eZB-7">
          <mxGeometry x="1" relative="1" as="geometry" />
        </mxCell>
        <mxCell id="aWvszYgXJ4EFliqO6eZB-9" value="" style="endArrow=none;html=1;rounded=0;entryX=0.75;entryY=0;entryDx=0;entryDy=0;exitX=0;exitY=0.5;exitDx=0;exitDy=0;" edge="1" parent="1" source="3Yl6NUVvSSKZdZsIhmiR-321" target="3Yl6NUVvSSKZdZsIhmiR-46">
          <mxGeometry relative="1" as="geometry">
            <mxPoint x="5110" y="1550" as="sourcePoint" />
            <mxPoint x="5270" y="1550" as="targetPoint" />
            <Array as="points">
              <mxPoint x="5140" y="1550" />
            </Array>
          </mxGeometry>
        </mxCell>
        <mxCell id="aWvszYgXJ4EFliqO6eZB-10" value="N" style="resizable=0;html=1;whiteSpace=wrap;align=right;verticalAlign=bottom;" connectable="0" vertex="1" parent="aWvszYgXJ4EFliqO6eZB-9">
          <mxGeometry x="1" relative="1" as="geometry" />
        </mxCell>
        <mxCell id="aWvszYgXJ4EFliqO6eZB-11" value="" style="endArrow=none;html=1;rounded=0;entryX=0.75;entryY=1;entryDx=0;entryDy=0;exitX=0;exitY=0.5;exitDx=0;exitDy=0;" edge="1" parent="1" source="3Yl6NUVvSSKZdZsIhmiR-316" target="3Yl6NUVvSSKZdZsIhmiR-48">
          <mxGeometry relative="1" as="geometry">
            <mxPoint x="6230" y="1850" as="sourcePoint" />
            <mxPoint x="6390" y="1850" as="targetPoint" />
            <Array as="points">
              <mxPoint x="6020" y="1900" />
            </Array>
          </mxGeometry>
        </mxCell>
        <mxCell id="aWvszYgXJ4EFliqO6eZB-12" value="N" style="resizable=0;html=1;whiteSpace=wrap;align=right;verticalAlign=bottom;" connectable="0" vertex="1" parent="aWvszYgXJ4EFliqO6eZB-11">
          <mxGeometry x="1" relative="1" as="geometry" />
        </mxCell>
        <mxCell id="aWvszYgXJ4EFliqO6eZB-13" value="" style="endArrow=none;html=1;rounded=0;entryX=0.5;entryY=1;entryDx=0;entryDy=0;exitX=1;exitY=0.5;exitDx=0;exitDy=0;" edge="1" parent="1" source="3Yl6NUVvSSKZdZsIhmiR-316" target="3Yl6NUVvSSKZdZsIhmiR-242">
          <mxGeometry relative="1" as="geometry">
            <mxPoint x="6230" y="1850" as="sourcePoint" />
            <mxPoint x="6390" y="1850" as="targetPoint" />
            <Array as="points">
              <mxPoint x="6680" y="1900" />
            </Array>
          </mxGeometry>
        </mxCell>
        <mxCell id="aWvszYgXJ4EFliqO6eZB-14" value="N" style="resizable=0;html=1;whiteSpace=wrap;align=right;verticalAlign=bottom;" connectable="0" vertex="1" parent="aWvszYgXJ4EFliqO6eZB-13">
          <mxGeometry x="1" relative="1" as="geometry" />
        </mxCell>
        <mxCell id="aWvszYgXJ4EFliqO6eZB-16" value="" style="endArrow=none;html=1;rounded=0;entryX=0.25;entryY=1;entryDx=0;entryDy=0;exitX=1;exitY=0.5;exitDx=0;exitDy=0;" edge="1" parent="1" source="3Yl6NUVvSSKZdZsIhmiR-323" target="3Yl6NUVvSSKZdZsIhmiR-48">
          <mxGeometry relative="1" as="geometry">
            <mxPoint x="5550" y="1840" as="sourcePoint" />
            <mxPoint x="5710" y="1840" as="targetPoint" />
            <Array as="points">
              <mxPoint x="5820" y="1910" />
            </Array>
          </mxGeometry>
        </mxCell>
        <mxCell id="aWvszYgXJ4EFliqO6eZB-17" value="1" style="resizable=0;html=1;whiteSpace=wrap;align=right;verticalAlign=bottom;" connectable="0" vertex="1" parent="aWvszYgXJ4EFliqO6eZB-16">
          <mxGeometry x="1" relative="1" as="geometry" />
        </mxCell>
        <mxCell id="aWvszYgXJ4EFliqO6eZB-18" value="" style="endArrow=none;html=1;rounded=0;entryX=0.75;entryY=1;entryDx=0;entryDy=0;exitX=0;exitY=0.5;exitDx=0;exitDy=0;" edge="1" parent="1" source="3Yl6NUVvSSKZdZsIhmiR-323" target="3Yl6NUVvSSKZdZsIhmiR-46">
          <mxGeometry relative="1" as="geometry">
            <mxPoint x="5550" y="1840" as="sourcePoint" />
            <mxPoint x="5710" y="1840" as="targetPoint" />
            <Array as="points">
              <mxPoint x="5025" y="1980" />
            </Array>
          </mxGeometry>
        </mxCell>
        <mxCell id="aWvszYgXJ4EFliqO6eZB-19" value="N" style="resizable=0;html=1;whiteSpace=wrap;align=right;verticalAlign=bottom;" connectable="0" vertex="1" parent="aWvszYgXJ4EFliqO6eZB-18">
          <mxGeometry x="1" relative="1" as="geometry" />
        </mxCell>
      </root>
    </mxGraphModel>
  </diagram>
</mxfile>
